<svg width="24" height="24" viewBox="0 0 24 24" fill="none" xmlns="http://www.w3.org/2000/svg">
<path d="M12.6444 3.76678C12.2248 3.63568 11.7754 3.63568 11.3558 3.76678L5.11583 5.71678C4.21408 5.99858 3.60011 6.8337 3.60011 7.77846V8.82942C3.60011 9.22706 3.92245 9.54942 4.32011 9.54942H5.08803V16.2909C4.4695 16.5871 4.00838 17.1705 3.88935 17.8847L3.6099 19.5615C3.57511 19.7702 3.63393 19.9837 3.77073 20.1451C3.90753 20.3067 4.10845 20.3998 4.32011 20.3998H19.6801C19.8918 20.3998 20.0927 20.3067 20.2295 20.1451C20.3663 19.9837 20.4251 19.7702 20.3903 19.5615L20.1108 17.8847C19.9918 17.1705 19.5307 16.5871 18.9122 16.2909V9.54942H19.6801C20.0777 9.54942 20.4001 9.22706 20.4001 8.82942V7.77846C20.4001 6.8337 19.7861 5.99858 18.8844 5.71678L12.6444 3.76678ZM6.52803 16.0798V9.54942H9.21572L9.21573 16.0798H6.52803ZM10.6557 16.0798V9.54942H13.3445V16.0798H10.6557ZM14.7845 16.0798V9.54942H17.4722V16.0798H14.7845Z" fill="white"/>
</svg>
