<svg width="24" height="24" viewBox="0 0 24 24" fill="none" xmlns="http://www.w3.org/2000/svg">
<path d="M15.4916 3.22901C15.5383 2.92484 15.3864 2.62466 15.1138 2.48198C14.8411 2.33931 14.5079 2.38568 14.2846 2.59739L4.91584 11.4787C4.70196 11.6815 4.63324 11.9941 4.74238 12.2679C4.85151 12.5416 5.11647 12.7212 5.41119 12.7212H9.68502L8.45109 20.7708C8.40446 21.075 8.55629 21.3752 8.82894 21.5178C9.1016 21.6606 9.43479 21.6141 9.65811 21.4024L19.0268 12.5211C19.2407 12.3183 19.3094 12.0057 19.2003 11.732C19.0911 11.4582 18.8262 11.2786 18.5315 11.2786H14.2576L15.4916 3.22901Z" fill="white"/>
</svg>
