<svg width="58" height="17" viewBox="0 0 58 17" fill="none" xmlns="http://www.w3.org/2000/svg">
<g clip-path="url(#clip0_60_3878)">
<path d="M11.5926 4.25H9.27409C8.76189 4.25 8.34668 4.67284 8.34668 5.19444V7.55556C8.34668 8.07716 8.76189 8.5 9.27409 8.5H11.5926C12.1048 8.5 12.52 8.07716 12.52 7.55556V5.19444C12.52 4.67284 12.1048 4.25 11.5926 4.25Z" fill="#FF531D"/>
<path d="M13.9111 5.66667V7.79167C13.9111 8.96514 12.9767 9.91667 11.8244 9.91667H9.04221C7.88991 9.91667 6.95555 8.96514 6.95555 7.79167V4.95833C6.95555 3.78486 7.88991 2.83333 9.04221 2.83333H11.1289C11.8963 2.83333 12.52 2.19819 12.52 1.41667C12.52 0.635139 11.8963 0 11.1289 0H5.80556C4.75991 0 3.75831 0.422639 3.01871 1.17583L1.15462 3.07417C0.415014 3.82736 0 4.84736 0 5.91222V12.75C0 15.0969 1.86872 17 4.17333 17H10.8878C11.9334 17 12.935 16.5774 13.6746 15.8242L15.5387 13.9258C16.2783 13.1726 16.6933 12.1526 16.6933 11.0878V5.66667C16.6933 4.88514 16.0696 4.25 15.3022 4.25C14.5348 4.25 13.9111 4.88514 13.9111 5.66667Z" fill="#1A1A1A"/>
<path d="M20.8667 10.1766C20.8667 7.78952 22.7772 6.09424 25.4991 6.09424C28.221 6.09424 30.1315 7.79188 30.1315 10.1766C30.1315 12.5613 28.221 14.2472 25.4991 14.2472C22.7772 14.2472 20.8667 12.5778 20.8667 10.1766ZM25.4991 12.3984C27.0154 12.3984 28.0587 11.4752 28.0587 10.1766C28.0587 8.87799 27.0154 7.94299 25.4991 7.94299C23.9828 7.94299 22.9255 8.86618 22.9255 10.1766C22.9255 11.487 23.9967 12.3984 25.4991 12.3984Z" fill="#1A1A1A"/>
<path d="M31.9351 2.9751H33.9128V14.0109H31.9351V2.9751Z" fill="#1A1A1A"/>
<path d="M37.3141 2.75537C38.0329 2.75537 38.587 3.2937 38.587 3.92884C38.587 4.61829 38.0329 5.15662 37.3141 5.15662C36.5954 5.15662 36.0273 4.61829 36.0273 3.92884C36.0273 3.2937 36.5838 2.75537 37.3141 2.75537ZM36.3125 6.31357H38.2902V14.0108H36.3125V6.31357Z" fill="#1A1A1A"/>
<path d="M39.6167 6.31348H41.7706C42.6377 8.19056 43.3008 9.8032 44.1146 11.7346H44.1564C45.0096 9.69223 45.6727 8.09375 46.4865 6.31348H48.587L45.3087 14.0107H42.9252L39.619 6.31348H39.6167Z" fill="#1A1A1A"/>
<path d="M49.1411 10.2049C49.1411 7.83202 51.0238 6.09424 53.639 6.09424C55.7512 6.09424 57.9468 7.36216 57.9468 10.1908V10.7149H51.1327C51.295 11.8742 52.4056 12.5094 53.7619 12.5094C54.8447 12.5094 55.7257 12.082 56.1593 11.2816L58.0025 12.0135C57.3788 13.2697 55.8347 14.2472 53.7758 14.2472C51.135 14.2472 49.1434 12.6463 49.1434 10.2049H49.1411ZM55.9413 9.39035C55.8068 8.20507 54.7218 7.74938 53.6251 7.74938C52.3105 7.74938 51.4712 8.42466 51.2278 9.39035H55.9413Z" fill="#1A1A1A"/>
</g>
<defs>
<clipPath id="clip0_60_3878">
<rect width="58" height="17" fill="white"/>
</clipPath>
</defs>
</svg>
