<svg width="96" height="96" viewBox="0 0 96 96" fill="none" xmlns="http://www.w3.org/2000/svg">
<path d="M28.5767 22.1119C29.5847 19.4313 32.3466 17.8367 35.172 18.3041L39.4521 19.0121C40.9429 19.2587 42.4719 18.9337 43.7335 18.1021L47.3556 15.7144C49.7467 14.1382 52.9183 14.4716 54.9295 16.5104L57.976 19.599C59.0371 20.6748 60.4651 21.3106 61.9746 21.3793L66.3084 21.5767C69.1693 21.707 71.5393 23.8409 71.9679 26.6725L72.6171 30.9619C72.8433 32.4559 73.6249 33.8097 74.8057 34.7525L78.1958 37.4595C80.4337 39.2465 81.0967 42.366 79.7791 44.9087L77.7832 48.7605C77.0879 50.1022 76.9246 51.6567 77.3256 53.1136L78.4772 57.2963C79.2373 60.0574 77.9402 62.9708 75.3796 64.2534L71.5008 66.1964C70.1497 66.8732 69.1038 68.0348 68.572 69.4492L67.0451 73.5099C66.0371 76.1905 63.2752 77.785 60.4498 77.3177L56.1697 76.6097C54.6789 76.3631 53.1499 76.6881 51.8883 77.5197L48.2662 79.9074C45.8751 81.4836 42.7034 81.1502 40.6923 79.1113L37.6458 76.0228C36.5847 74.947 35.1567 74.3112 33.6471 74.2425L29.3134 74.0451C26.4525 73.9148 24.0825 71.7809 23.6539 68.9493L23.0046 64.6599C22.7785 63.1658 21.9969 61.8121 20.8161 60.8692L17.426 58.1622C15.1881 56.3753 14.525 53.2558 15.8426 50.7131L17.8386 46.8613C18.5338 45.5196 18.6972 43.965 18.2961 42.5082L17.1446 38.3255C16.3845 35.5644 17.6816 32.651 20.2422 31.3684L24.121 29.4254C25.472 28.7486 26.518 27.587 27.0498 26.1726L28.5767 22.1119Z" fill="black" fill-opacity="0.5"/>
<path d="M27.6409 21.7602C28.8169 18.6329 32.039 16.7726 35.3354 17.3179L39.6152 18.0257C40.8574 18.2312 42.1314 17.9602 43.1827 17.2673L46.8051 14.8793C49.5947 13.0405 53.2955 13.4294 55.6418 15.8081L58.6882 18.897C59.5723 19.7932 60.762 20.3227 62.0196 20.3801L66.3541 20.5772C69.6917 20.7292 72.4565 23.2193 72.9566 26.5227L73.606 30.8116C73.7945 32.0567 74.4462 33.1855 75.4302 33.9713L78.8199 36.6782C81.4306 38.763 82.2047 42.4024 80.6676 45.3688L78.671 49.2211C78.0919 50.339 77.9556 51.6341 78.2897 52.8479L79.4416 57.0305C80.3285 60.2518 78.8149 63.6513 75.8275 65.1477L71.9483 67.0908C70.8226 67.6548 69.9509 68.6226 69.5078 69.8012L67.9809 73.8615C66.8049 76.9889 63.5828 78.8492 60.2864 78.3039L56.0066 77.5961C54.7644 77.3906 53.4904 77.6616 52.4391 78.3545L48.8167 80.7424C46.0271 82.5813 42.3263 82.1924 39.98 79.8137L36.9336 76.7248C36.0495 75.8286 34.8598 75.2991 33.6022 75.2416L29.2676 75.0446C25.9301 74.8925 23.1653 72.4025 22.6652 69.0991L22.0158 64.8101C21.8273 63.5651 21.1756 62.4362 20.1915 61.6505L16.8019 58.9436C14.1912 56.8588 13.4171 53.2194 14.9542 50.2529L16.9508 46.4006C17.5299 45.2828 17.6661 43.9877 17.3321 42.7739L16.1802 38.5913C15.2933 35.37 16.8069 31.9705 19.7942 30.4741L23.6735 28.531C24.7991 27.967 25.6708 26.9991 26.114 25.8206L27.6409 21.7602Z" stroke="black" stroke-opacity="0.6" stroke-width="2"/>
<g clip-path="url(#clip0_48_8485)">
<path d="M43.1305 41.1442C43.4343 40.7483 43.8829 40.4893 44.3777 40.4242L50.2534 39.651C50.9496 39.5594 51.6672 39.8619 52.0528 40.4917C54.0377 43.734 55.6002 48.8775 52.5611 54.2534C52.2473 54.8085 51.6589 55.1516 51.0216 55.1517C44.7432 55.1531 41.1505 51.1669 39.349 47.8235C38.9998 47.1752 39.0954 46.4036 39.5232 45.8461L43.1305 41.1442ZM48.9772 43.9658C48.6427 43.8762 48.2989 44.0747 48.2093 44.4092L47.1437 48.3857L45.5318 47.9537C45.1973 47.8641 44.8534 48.0627 44.7638 48.3972C44.6741 48.7317 44.8727 49.0756 45.2072 49.1652L47.4249 49.7594C47.7594 49.849 48.1033 49.6505 48.1929 49.316L49.4207 44.7338C49.5103 44.3993 49.3118 44.0554 48.9772 43.9658Z" fill="white"/>
</g>
<path opacity="0.7" d="M72.6175 54.5753L72.3115 55.3924L69.6778 55.8262L69.6586 55.8774L71.3595 57.9345L71.0535 58.7516L68.8053 55.9375L66.9337 55.2366L67.2022 54.5196L69.0738 55.2205L72.6175 54.5753ZM65.2794 62.9172C64.8385 62.5993 64.5175 62.2453 64.3166 61.8553C64.117 61.4662 64.0331 61.0697 64.065 60.6656C64.0972 60.2639 64.2418 59.8849 64.4986 59.5287C64.7564 59.1712 65.0713 58.913 65.4432 58.7541C65.8155 58.5976 66.2185 58.5531 66.652 58.6205C67.0855 58.6879 67.5221 58.8801 67.9616 59.197C68.4026 59.5149 68.7228 59.8684 68.9224 60.2575C69.1233 60.6475 69.2077 61.0434 69.1754 61.4451C69.1436 61.8492 68.9988 62.23 68.741 62.5875C68.4841 62.9438 68.1695 63.2001 67.7972 63.3566C67.4253 63.5155 67.0226 63.5611 66.589 63.4937C66.1568 63.4273 65.7203 63.2351 65.2794 62.9172ZM65.7242 62.3002C66.0603 62.5425 66.3825 62.6921 66.6909 62.7489C66.9996 62.8081 67.281 62.7862 67.535 62.6833C67.7893 62.5827 68.0018 62.4141 68.1724 62.1776C68.3439 61.9396 68.4372 61.6841 68.4523 61.411C68.4687 61.1389 68.4006 60.865 68.2479 60.5894C68.0956 60.3162 67.8514 60.0584 67.5153 59.8161C67.1793 59.5738 66.8569 59.423 66.5481 59.3639C66.2398 59.307 65.9584 59.3289 65.704 59.4295C65.451 59.531 65.2387 59.7008 65.0672 59.9387C64.8966 60.1753 64.8031 60.4296 64.7867 60.7018C64.7706 60.9762 64.8388 61.2501 64.9911 61.5234C65.1438 61.7989 65.3882 62.0579 65.7242 62.3002ZM62.7966 68.5578L62.1904 69.0337L60.1229 66.3999C59.9029 66.1196 59.7738 65.8196 59.7355 65.4999C59.6984 65.1815 59.7504 64.8667 59.8918 64.5556C60.0341 64.2458 60.2656 63.965 60.5863 63.7133C60.9057 63.4626 61.2327 63.3049 61.5674 63.2402C61.9032 63.1767 62.2213 63.2009 62.5218 63.3126C62.8234 63.4256 63.0841 63.6223 63.3041 63.9025L65.3717 66.5363L64.7675 67.0106L62.7383 64.4257C62.5961 64.2445 62.4299 64.1148 62.2399 64.0364C62.0486 63.9591 61.8475 63.9378 61.6368 63.9726C61.4271 64.0087 61.2212 64.1061 61.0191 64.2647C60.8158 64.4243 60.6717 64.6017 60.5868 64.7969C60.5016 64.9943 60.4752 65.1942 60.5075 65.3963C60.5385 65.5995 60.6251 65.7917 60.7674 65.9729L62.7966 68.5578ZM57.6668 65.9253L59.6446 70.6163L57.9725 71.3213C57.6091 71.4745 57.2811 71.539 56.9886 71.5149C56.6945 71.4914 56.4413 71.3941 56.2288 71.2229C56.017 71.0532 55.8502 70.824 55.7286 70.5354C55.6075 70.2484 55.5613 69.9702 55.5899 69.701C55.6175 69.4339 55.7266 69.1892 55.917 68.9669C56.1059 68.7451 56.382 68.5577 56.7455 68.4045L58.0121 67.8704L58.269 68.4797L57.0665 68.9867C56.8374 69.0833 56.665 69.1946 56.5491 69.3208C56.4317 69.4476 56.3658 69.5878 56.3515 69.7414C56.3371 69.8949 56.3669 70.0595 56.4409 70.2351C56.5156 70.4122 56.6147 70.5512 56.7381 70.652C56.86 70.7535 57.008 70.808 57.182 70.8156C57.3552 70.8253 57.5586 70.7809 57.7922 70.6824L58.6809 70.3077L56.9591 66.2237L57.6668 65.9253ZM56.2434 69.0181L54.1921 67.3903L54.9984 67.0503L57.0268 68.6878L56.2434 69.0181ZM51.0453 72.6426L51.0725 73.3033L47.1358 73.4651L47.1087 72.8045L48.6957 72.7392L48.5138 68.3133L49.2788 68.2818L49.4607 72.7078L51.0453 72.6426ZM45.5249 68.2978L44.4705 73.2783L42.6953 72.9025C42.3094 72.8208 42.0033 72.6866 41.7769 72.4997C41.5489 72.3126 41.3965 72.088 41.3198 71.8262C41.2428 71.566 41.2367 71.2826 41.3016 70.9762C41.3661 70.6714 41.4869 70.4166 41.6641 70.2119C41.8393 70.0085 42.0685 69.8698 42.3518 69.796C42.6335 69.7218 42.9672 69.7255 43.3531 69.8072L44.6979 70.0919L44.561 70.7388L43.2842 70.4685C43.041 70.417 42.8359 70.41 42.6687 70.4475C42.4999 70.4846 42.3658 70.562 42.2663 70.6799C42.1668 70.7977 42.0974 70.9499 42.0579 71.1363C42.0181 71.3244 42.0201 71.495 42.0638 71.6483C42.106 71.8012 42.1964 71.9304 42.3349 72.036C42.4716 72.1428 42.6639 72.2225 42.9119 72.275L43.8555 72.4748L44.7735 68.1387L45.5249 68.2978ZM42.5906 70.0244L41.8357 67.5168L42.6918 67.698L43.4223 70.2005L42.5906 70.0244ZM39.1512 66.3759L40.6242 67.1152L38.3403 71.6651L36.8207 70.9023C36.3749 70.6785 36.0378 70.3953 35.8093 70.0525C35.5801 69.7112 35.4655 69.3283 35.4654 68.9036C35.4631 68.4797 35.5805 68.0315 35.8177 67.559C36.0556 67.0851 36.3467 66.7213 36.691 66.4676C37.0337 66.2132 37.4142 66.076 37.8322 66.0559C38.2495 66.0372 38.6892 66.1439 39.1512 66.3759ZM39.6366 67.3705L38.8879 66.9947C38.5414 66.8207 38.2206 66.7413 37.9256 66.7564C37.6298 66.7729 37.3625 66.877 37.1236 67.0686C36.8839 67.2617 36.6737 67.5381 36.4931 67.898C36.3139 68.255 36.2189 68.5865 36.208 68.8926C36.1957 69.1979 36.269 69.4711 36.428 69.7122C36.5869 69.9533 36.8323 70.1571 37.164 70.3237L37.9549 70.7207L39.6366 67.3705ZM30.7399 63.3522C31.1084 62.9527 31.4983 62.6765 31.9096 62.5238C32.3198 62.3723 32.7236 62.3367 33.1209 62.4167C33.5158 62.4969 33.8747 62.6859 34.1976 62.9836C34.5216 63.2824 34.7402 63.626 34.8532 64.0143C34.964 64.4027 34.9598 64.808 34.8409 65.2304C34.722 65.6527 34.4788 66.063 34.1114 66.4614C33.7429 66.861 33.3536 67.1365 32.9434 67.288C32.532 67.4407 32.1289 67.477 31.734 67.3968C31.3367 67.3167 30.976 67.1272 30.6519 66.8284C30.3291 66.5307 30.1123 66.1876 30.0016 65.7992C29.8885 65.4109 29.8915 65.0056 30.0104 64.5833C30.1283 64.1622 30.3714 63.7518 30.7399 63.3522ZM31.2991 63.8679C31.0182 64.1725 30.8311 64.4744 30.7376 64.7737C30.6419 65.0732 30.6298 65.3551 30.7015 65.6196C30.7709 65.8842 30.9127 66.1153 31.1272 66.3131C31.3428 66.5119 31.5853 66.6352 31.8546 66.6829C32.1228 66.7319 32.4028 66.6971 32.6948 66.5786C32.9843 66.4601 33.2696 66.2486 33.5504 65.9441C33.8313 65.6395 34.0196 65.3375 34.1154 65.0381C34.2088 64.7388 34.2208 64.4568 34.1515 64.1922C34.081 63.9289 33.938 63.6978 33.7223 63.4989C33.5079 63.3012 33.2666 63.1778 32.9984 63.1289C32.7279 63.08 32.4478 63.1148 32.1582 63.2333C31.8663 63.3518 31.5799 63.5633 31.2991 63.8679ZM25.0078 59.4884L29.3641 56.854L29.7294 57.4581L27.8736 61.6045L27.8981 61.6449L31.093 59.7128L31.4904 60.3701L27.1342 63.0045L26.7663 62.3962L28.625 58.2451L28.6006 58.2047L25.4015 60.1393L25.0078 59.4884ZM28.5143 54.9653L28.746 55.747L23.3444 55.4377L23.0921 54.5869L27.4522 51.3832L27.684 52.1649L24.0988 54.7291L24.1101 54.7673L28.5143 54.9653ZM26.564 55.4009L25.8122 52.8651L26.4318 52.6814L27.1837 55.2172L26.564 55.4009ZM22.9787 51.1531L22.3182 51.1821L22.1454 47.2459L22.806 47.2169L22.8756 48.8038L27.3011 48.6096L27.3346 49.3745L22.9092 49.5687L22.9787 51.1531ZM22.3568 44.0959L27.3911 44.8527L27.277 45.6123L22.2426 44.8554L22.3568 44.0959ZM26.7998 38.2057C27.3128 38.3852 27.7211 38.6334 28.0246 38.9502C28.3265 39.2666 28.5196 39.6229 28.6038 40.0194C28.6871 40.4137 28.6562 40.8181 28.5111 41.2326C28.3656 41.6487 28.137 41.9857 27.8255 42.2437C27.5131 42.4995 27.1394 42.6567 26.7046 42.7153C26.2697 42.7738 25.7966 42.7136 25.2851 42.5346C24.772 42.3551 24.3645 42.1072 24.0626 41.7908C23.7591 41.474 23.5658 41.1184 23.4825 40.7241C23.3983 40.3276 23.4289 39.9214 23.5745 39.5053C23.7195 39.0908 23.9483 38.7556 24.2608 38.4998C24.5723 38.2418 24.9454 38.0835 25.3803 38.025C25.8135 37.9659 26.2867 38.0261 26.7998 38.2057ZM26.5485 38.9236C26.1575 38.7868 25.8061 38.7349 25.4942 38.7681C25.1814 38.7991 24.9179 38.9 24.7036 39.0708C24.4883 39.2395 24.3325 39.4615 24.2362 39.7368C24.1393 40.0137 24.1224 40.2852 24.1856 40.5513C24.2471 40.8169 24.3903 41.0601 24.615 41.281C24.8387 41.4997 25.146 41.6775 25.5371 41.8143C25.9282 41.9511 26.2801 42.004 26.5929 41.973C26.9047 41.9399 27.1683 41.839 27.3836 41.6703C27.5973 41.501 27.7526 41.278 27.8495 41.0011C27.9458 40.7258 27.9632 40.4554 27.9016 40.1898C27.839 39.9221 27.6959 39.6789 27.4722 39.4601C27.2475 39.2393 26.9396 39.0605 26.5485 38.9236ZM28.1492 31.3904L32.2625 34.39L31.8465 34.9604L27.3051 34.8513L27.2773 34.8894L30.294 37.0894L29.8414 37.71L25.7281 34.7103L26.147 34.1359L30.6939 34.246L30.7217 34.2078L27.701 32.005L28.1492 31.3904ZM32.7603 26.9672L35.7534 31.0853L35.132 31.5369L32.139 27.4188L32.7603 26.9672ZM38.0054 25.5926C37.8783 25.3928 37.7 25.2771 37.4705 25.2453C37.2403 25.212 36.9942 25.2594 36.7321 25.3874C36.5445 25.4791 36.3968 25.5882 36.2889 25.7147C36.1802 25.8397 36.1131 25.9721 36.0873 26.1119C36.0623 26.2495 36.0815 26.3831 36.1448 26.5127C36.1979 26.6214 36.269 26.7028 36.3582 26.757C36.4489 26.8104 36.549 26.8436 36.6585 26.8565C36.7689 26.8671 36.8812 26.8667 36.9954 26.8551C37.1089 26.8421 37.2158 26.8249 37.3161 26.8036L37.8195 26.7015C37.9829 26.666 38.1562 26.6413 38.3394 26.6274C38.5226 26.6135 38.704 26.6245 38.8838 26.6602C39.0636 26.696 39.2297 26.7679 39.3821 26.876C39.536 26.9834 39.6632 27.1399 39.7635 27.3454C39.8901 27.6045 39.9355 27.8672 39.8997 28.1337C39.8654 28.3995 39.75 28.6523 39.5536 28.8921C39.3587 29.1312 39.0826 29.338 38.7252 29.5126C38.3827 29.6799 38.0599 29.7703 37.7566 29.7838C37.4534 29.7973 37.1823 29.7388 36.9433 29.6084C36.7037 29.4765 36.5091 29.2764 36.3597 29.0083L37.0521 28.67C37.1462 28.8287 37.2671 28.9403 37.4147 29.0046C37.5631 29.0668 37.7241 29.0887 37.8977 29.0702C38.0721 29.0496 38.2479 28.996 38.425 28.9095C38.6201 28.8142 38.7787 28.6989 38.9007 28.5637C39.0235 28.4262 39.102 28.2809 39.136 28.1278C39.1693 27.9732 39.1496 27.8215 39.0768 27.6726C39.0106 27.5371 38.9177 27.445 38.7981 27.3965C38.68 27.3472 38.5416 27.3263 38.3829 27.3337C38.2257 27.3405 38.0547 27.3622 37.8698 27.3991L37.2572 27.5157C36.8422 27.5949 36.4802 27.5901 36.1712 27.5012C35.8637 27.4117 35.6321 27.2076 35.4765 26.8889C35.3477 26.6254 35.3068 26.3604 35.3537 26.094C35.4007 25.8276 35.5197 25.5805 35.7108 25.3525C35.9011 25.123 36.1497 24.9333 36.4564 24.7835C36.7662 24.6322 37.0659 24.553 37.3558 24.5461C37.6471 24.5384 37.9079 24.5964 38.138 24.72C38.3673 24.8422 38.545 25.0247 38.671 25.2675L38.0054 25.5926ZM46.529 23.5605C46.4829 23.3282 46.3586 23.1558 46.1562 23.0431C45.9537 22.9287 45.7071 22.8838 45.4164 22.9082C45.2084 22.9258 45.0312 22.9739 44.8848 23.0528C44.7383 23.13 44.6277 23.2291 44.5531 23.3501C44.48 23.4693 44.4494 23.6008 44.4615 23.7445C44.4717 23.865 44.5085 23.9667 44.572 24.0495C44.6372 24.1321 44.7185 24.1993 44.816 24.251C44.915 24.3008 45.0198 24.3411 45.1305 24.3717C45.241 24.4006 45.3469 24.4233 45.448 24.4398L45.9543 24.5269C46.1194 24.5529 46.2899 24.5926 46.4657 24.646C46.6415 24.6994 46.8067 24.7753 46.9613 24.8737C47.116 24.9721 47.2447 25.0993 47.3477 25.2553C47.4522 25.4111 47.5141 25.603 47.5333 25.8309C47.5575 26.1182 47.5046 26.3796 47.3748 26.6151C47.2466 26.8504 47.0475 27.0442 46.7776 27.1966C46.5094 27.3489 46.1771 27.4418 45.7808 27.4751C45.4009 27.5071 45.0672 27.4744 44.7797 27.3772C44.4921 27.28 44.2606 27.1274 44.0851 26.9193C43.9094 26.7096 43.8005 26.4526 43.7583 26.1485L44.5262 26.0839C44.5565 26.266 44.6288 26.4137 44.7431 26.5272C44.8589 26.6388 45.0011 26.7175 45.1695 26.7632C45.3395 26.8071 45.5228 26.8208 45.7193 26.8042C45.9356 26.786 46.1252 26.736 46.2879 26.6541C46.4522 26.5705 46.5779 26.4634 46.665 26.333C46.752 26.201 46.7886 26.0524 46.7747 25.8872C46.7621 25.737 46.7088 25.6176 46.6148 25.529C46.5226 25.4403 46.4011 25.3707 46.2505 25.3202C46.1016 25.2695 45.9343 25.2279 45.7486 25.1953L45.1354 25.0822C44.7198 25.0058 44.3841 24.8702 44.1283 24.6755C43.8741 24.4807 43.7321 24.2066 43.7024 23.8532C43.6778 23.5609 43.7356 23.2991 43.8758 23.0678C44.0159 22.8365 44.2164 22.6492 44.4771 22.5058C44.7376 22.3608 45.038 22.274 45.3781 22.2454C45.7216 22.2165 46.0297 22.2513 46.3024 22.3498C46.5768 22.4481 46.7988 22.5965 46.9685 22.7951C47.1381 22.9921 47.2377 23.2265 47.2672 23.4984L46.529 23.5605ZM49.1055 27.2398L49.858 22.2048L53.0147 22.6766L52.917 23.3306L50.52 22.9723L50.2907 24.5064L52.523 24.84L52.4256 25.4915L50.1933 25.1579L49.9629 26.6994L52.3894 27.062L52.2917 27.716L49.1055 27.2398ZM59.0191 26.5883L58.3061 26.283C58.3439 26.1189 58.3503 25.963 58.3252 25.8152C58.3002 25.6675 58.2509 25.5301 58.1773 25.403C58.1037 25.276 58.0087 25.1632 57.8922 25.0646C57.7773 24.9667 57.6452 24.8858 57.4959 24.8219C57.2263 24.7064 56.9558 24.6708 56.6844 24.7151C56.4146 24.76 56.1619 24.887 55.9263 25.0962C55.6922 25.306 55.4943 25.5998 55.3325 25.9776C55.1694 26.3585 55.0927 26.706 55.1024 27.0202C55.1136 27.3351 55.1971 27.6052 55.353 27.8306C55.5088 28.056 55.7201 28.2258 55.9866 28.34C56.1344 28.4032 56.283 28.4434 56.4325 28.4606C56.5842 28.4769 56.7311 28.4686 56.8732 28.4357C57.0153 28.4028 57.1481 28.3452 57.2717 28.2629C57.3974 28.1797 57.5067 28.0697 57.5996 27.9328L58.3116 28.2404C58.175 28.4541 58.0104 28.6342 57.8179 28.7807C57.6275 28.9264 57.417 29.0327 57.1864 29.0998C56.9579 29.166 56.7185 29.1906 56.468 29.1734C56.2175 29.1563 55.9636 29.0926 55.7061 28.9824C55.3009 28.8089 54.981 28.5583 54.7463 28.2306C54.5123 27.9015 54.3808 27.518 54.352 27.0802C54.3247 26.643 54.4177 26.1754 54.631 25.6772C54.845 25.1776 55.12 24.7879 55.4561 24.5082C55.7929 24.2269 56.1608 24.0582 56.5599 24.0019C56.9596 23.9441 57.3613 24.0017 57.765 24.1746C58.0133 24.2809 58.2295 24.4159 58.4137 24.5795C58.6 24.7422 58.7499 24.9289 58.8633 25.1398C58.9774 25.3491 59.0487 25.5761 59.0773 25.8209C59.1065 26.0642 59.0871 26.32 59.0191 26.5883ZM64.6831 28.573L65.2808 29.0595L63.167 31.6563C62.9421 31.9327 62.6779 32.1247 62.3745 32.2324C62.072 32.3388 61.7535 32.3573 61.4189 32.288C61.0854 32.2174 60.7605 32.0534 60.4444 31.796C60.1295 31.5397 59.9036 31.2554 59.7667 30.9432C59.6309 30.6296 59.5844 30.314 59.6272 29.9963C59.671 29.6773 59.8054 29.3796 60.0303 29.1033L62.1441 26.5064L62.7398 26.9913L60.6653 29.5399C60.5199 29.7186 60.4299 29.9092 60.3953 30.1119C60.362 30.3155 60.3856 30.5163 60.4659 30.7142C60.5473 30.9108 60.6877 31.0902 60.8869 31.2523C61.0874 31.4155 61.2922 31.5171 61.5012 31.5569C61.7126 31.5964 61.9133 31.5782 62.1034 31.5022C62.2948 31.4272 62.4632 31.3003 62.6086 31.1217L64.6831 28.573ZM63.2473 34.1532L67.3652 31.1598L68.4322 32.6276C68.6641 32.9466 68.8016 33.2513 68.8446 33.5417C68.8887 33.8333 68.8515 34.1021 68.7332 34.348C68.6161 34.5928 68.4309 34.8074 68.1776 34.9915C67.9256 35.1747 67.6653 35.283 67.3966 35.3165C67.1302 35.3503 66.8671 35.2998 66.6073 35.165C66.3484 35.0315 66.103 34.8052 65.8711 34.4862L65.0628 33.3743L65.5977 32.9855L66.365 34.0411C66.5112 34.2422 66.6589 34.3848 66.8081 34.4689C66.9583 34.5543 67.1098 34.5866 67.2626 34.5657C67.4154 34.5447 67.5689 34.4783 67.723 34.3662C67.8785 34.2532 67.9913 34.1251 68.0614 33.9819C68.1325 33.8401 68.1519 33.6836 68.1196 33.5124C68.0897 33.3416 68.0002 33.1537 67.8511 32.9486L67.284 32.1684L63.699 34.7745L63.2473 34.1532ZM66.5829 34.8355L65.4646 37.2034L64.9501 36.4956L66.083 34.1478L66.5829 34.8355ZM66.1039 38.3082L70.8137 36.3754L72.0255 39.3281L71.4138 39.5792L70.4936 37.337L69.0586 37.9259L69.9155 40.014L69.3061 40.2641L68.4492 38.176L67.0073 38.7678L67.9388 41.0375L67.3271 41.2886L66.1039 38.3082ZM68.0313 44.3813L67.7844 42.7518L72.8179 41.9892L73.0726 43.6703C73.1473 44.1634 73.1107 44.6023 72.9628 44.9867C72.8165 45.3709 72.5701 45.6857 72.2234 45.9309C71.8786 46.1776 71.4449 46.3405 70.9222 46.4197C70.3979 46.4992 69.9328 46.4716 69.5269 46.337C69.1212 46.204 68.7895 45.9727 68.5317 45.643C68.2756 45.3131 68.1088 44.8925 68.0313 44.3813ZM68.5631 43.4107L68.6886 44.239C68.7467 44.6224 68.867 44.9301 69.0497 45.1623C69.234 45.3941 69.4734 45.5523 69.7677 45.6368C70.0638 45.721 70.4109 45.7329 70.809 45.6726C71.2039 45.6127 71.5294 45.4989 71.7856 45.331C72.042 45.1648 72.2227 44.9472 72.3277 44.6782C72.4328 44.4091 72.4575 44.0911 72.4019 43.7241L72.2694 42.8491L68.5631 43.4107ZM68.4145 48.4006C68.4184 48.2647 68.4699 48.1494 68.5688 48.0545C68.6694 47.9596 68.7885 47.9142 68.926 47.9182C69.0618 47.9222 69.1763 47.9745 69.2695 48.075C69.3644 48.1756 69.4098 48.2938 69.4059 48.4297C69.4019 48.5655 69.3496 48.6808 69.249 48.7757C69.15 48.8706 69.0327 48.9161 68.8968 48.9121C68.8057 48.9094 68.7227 48.8838 68.6479 48.8352C68.5747 48.7883 68.5168 48.7269 68.4743 48.651C68.4317 48.5752 68.4118 48.4917 68.4145 48.4006Z" fill="white"/>
<defs>
<clipPath id="clip0_48_8485">
<rect width="20.0669" height="20.0669" fill="white" transform="translate(34.105 44.1382) rotate(-30)"/>
</clipPath>
</defs>
</svg>
