<svg width="96" height="96" viewBox="0 0 96 96" fill="none" xmlns="http://www.w3.org/2000/svg">
<path d="M28.5767 22.1119C29.5847 19.4313 32.3466 17.8367 35.172 18.3041L39.4521 19.0121C40.9429 19.2587 42.4719 18.9337 43.7335 18.1021L47.3556 15.7144C49.7467 14.1382 52.9183 14.4716 54.9295 16.5104L57.976 19.599C59.0371 20.6748 60.4651 21.3106 61.9746 21.3793L66.3084 21.5767C69.1693 21.707 71.5393 23.8409 71.9679 26.6725L72.6171 30.9619C72.8433 32.4559 73.6249 33.8097 74.8057 34.7525L78.1958 37.4595C80.4337 39.2465 81.0967 42.366 79.7791 44.9087L77.7832 48.7605C77.0879 50.1022 76.9246 51.6567 77.3256 53.1136L78.4772 57.2963C79.2373 60.0574 77.9402 62.9708 75.3796 64.2534L71.5008 66.1964C70.1497 66.8732 69.1038 68.0348 68.572 69.4492L67.0451 73.5099C66.0371 76.1905 63.2752 77.785 60.4498 77.3177L56.1697 76.6097C54.6789 76.3631 53.1499 76.6881 51.8883 77.5197L48.2662 79.9074C45.8751 81.4836 42.7034 81.1502 40.6923 79.1113L37.6458 76.0228C36.5847 74.947 35.1567 74.3112 33.6471 74.2425L29.3134 74.0451C26.4525 73.9148 24.0825 71.7809 23.6539 68.9493L23.0046 64.6599C22.7785 63.1658 21.9969 61.8121 20.8161 60.8692L17.426 58.1622C15.1881 56.3753 14.525 53.2558 15.8426 50.7131L17.8386 46.8613C18.5338 45.5196 18.6972 43.965 18.2961 42.5082L17.1446 38.3255C16.3845 35.5644 17.6816 32.651 20.2422 31.3684L24.121 29.4254C25.472 28.7486 26.518 27.587 27.0498 26.1726L28.5767 22.1119Z" fill="black" fill-opacity="0.5"/>
<path d="M27.6409 21.7602C28.8169 18.6329 32.039 16.7726 35.3354 17.3179L39.6152 18.0257C40.8574 18.2312 42.1314 17.9602 43.1827 17.2673L46.8051 14.8793C49.5947 13.0405 53.2955 13.4294 55.6418 15.8081L58.6882 18.897C59.5723 19.7932 60.762 20.3227 62.0196 20.3801L66.3541 20.5772C69.6917 20.7292 72.4565 23.2193 72.9566 26.5227L73.606 30.8116C73.7945 32.0567 74.4462 33.1855 75.4302 33.9713L78.8199 36.6782C81.4306 38.763 82.2047 42.4024 80.6676 45.3688L78.671 49.2211C78.0919 50.339 77.9556 51.6341 78.2897 52.8479L79.4416 57.0305C80.3285 60.2518 78.8149 63.6513 75.8275 65.1477L71.9483 67.0908C70.8226 67.6548 69.9509 68.6226 69.5078 69.8012L67.9809 73.8615C66.8049 76.9889 63.5828 78.8492 60.2864 78.3039L56.0066 77.5961C54.7644 77.3906 53.4904 77.6616 52.4391 78.3545L48.8167 80.7424C46.0271 82.5813 42.3263 82.1924 39.98 79.8137L36.9336 76.7248C36.0495 75.8286 34.8598 75.2991 33.6022 75.2416L29.2676 75.0446C25.9301 74.8925 23.1653 72.4025 22.6652 69.0991L22.0158 64.8101C21.8273 63.5651 21.1756 62.4362 20.1915 61.6505L16.8019 58.9436C14.1912 56.8588 13.4171 53.2194 14.9542 50.2529L16.9508 46.4006C17.5299 45.2828 17.6661 43.9877 17.3321 42.7739L16.1802 38.5913C15.2933 35.37 16.8069 31.9705 19.7942 30.4741L23.6735 28.531C24.7991 27.967 25.6708 26.9991 26.114 25.8206L27.6409 21.7602Z" stroke="black" stroke-opacity="0.6" stroke-width="2"/>
<g clip-path="url(#clip0_48_8485)">
<path d="M43.1305 41.1442C43.4343 40.7483 43.8829 40.4893 44.3777 40.4242L50.2534 39.651C50.9496 39.5594 51.6672 39.8619 52.0528 40.4917C54.0377 43.734 55.6002 48.8775 52.5611 54.2534C52.2473 54.8085 51.6589 55.1516 51.0216 55.1517C44.7432 55.1531 41.1505 51.1669 39.349 47.8235C38.9998 47.1752 39.0954 46.4036 39.5232 45.8461L43.1305 41.1442ZM48.9772 43.9658C48.6427 43.8762 48.2989 44.0747 48.2093 44.4092L47.1437 48.3857L45.5318 47.9537C45.1973 47.8641 44.8534 48.0627 44.7638 48.3972C44.6741 48.7317 44.8727 49.0756 45.2072 49.1652L47.4249 49.7594C47.7594 49.849 48.1033 49.6505 48.1929 49.316L49.4207 44.7338C49.5103 44.3993 49.3118 44.0554 48.9772 43.9658Z" fill="white"/>
</g>
<path opacity="0.7" d="M71.9458 56.6564L71.5677 57.4428L68.9058 57.6386L68.8821 57.6879L70.3916 59.8892L70.0136 60.6756L68.0268 57.6712L66.2256 56.8053L66.5573 56.1152L68.3586 56.9812L71.9458 56.6564ZM63.6833 64.5344C63.2783 64.1718 62.9965 63.7859 62.8378 63.3769C62.6804 62.9689 62.6388 62.5657 62.7131 62.1673C62.7875 61.7712 62.9712 61.4096 63.2641 61.0825C63.5582 60.7541 63.8985 60.5305 64.2852 60.4118C64.6719 60.2954 65.0773 60.2936 65.5013 60.4064C65.9253 60.5192 66.3392 60.7563 66.7428 61.1178C67.1478 61.4804 67.429 61.8657 67.5864 62.2737C67.7451 62.6827 67.7872 63.0853 67.7128 63.4814C67.6386 63.8798 67.4544 64.2432 67.1603 64.5716C66.8674 64.8987 66.5275 65.1205 66.1408 65.2369C65.7541 65.3556 65.3488 65.3586 64.9248 65.2458C64.502 65.1341 64.0882 64.897 63.6833 64.5344ZM64.1907 63.9677C64.4993 64.2441 64.804 64.4268 65.1046 64.5159C65.4054 64.6073 65.6875 64.6152 65.9509 64.5397C66.2145 64.4664 66.4435 64.3212 66.6381 64.1039C66.8338 63.8854 66.9535 63.6412 66.9973 63.3712C67.0424 63.1023 67.0035 62.8228 66.8807 62.5326C66.758 62.2448 66.5424 61.9627 66.2337 61.6863C65.9251 61.4099 65.6204 61.226 65.3196 61.1346C65.019 61.0456 64.7369 61.0377 64.4733 61.1109C64.211 61.1852 63.982 61.3316 63.7863 61.5501C63.5918 61.7674 63.472 62.0105 63.4269 62.2794C63.382 62.5506 63.4209 62.8301 63.5436 63.1179C63.6664 63.4081 63.8821 63.6913 64.1907 63.9677ZM60.3518 70.0796L59.6935 70.4803L57.9528 67.62C57.7675 67.3156 57.6749 67.0024 57.6749 66.6804C57.6757 66.3598 57.7647 66.0534 57.9419 65.7613C58.12 65.4705 58.3832 65.2192 58.7314 65.0073C59.0782 64.7962 59.4217 64.6783 59.7617 64.6537C60.1026 64.6306 60.4156 64.6923 60.7008 64.8388C60.9868 64.9868 61.2224 65.213 61.4076 65.5173L63.1484 68.3776L62.4923 68.777L60.7838 65.9698C60.664 65.773 60.5145 65.6244 60.3351 65.5241C60.1542 65.4246 59.9571 65.3797 59.7438 65.3893C59.5312 65.4003 59.3153 65.4725 59.0958 65.6061C58.875 65.7405 58.7109 65.8995 58.6035 66.0832C58.4955 66.2692 58.4456 66.4645 58.4537 66.6691C58.4604 66.8745 58.5236 67.0756 58.6434 67.2724L60.3518 70.0796ZM55.3349 66.9959L56.7039 71.8992L54.9561 72.3872C54.5762 72.4933 54.2427 72.5158 53.9556 72.4549C53.6668 72.3945 53.4279 72.2659 53.2388 72.0692C53.0501 71.8741 52.9137 71.6257 52.8295 71.3241C52.7457 71.024 52.735 70.7422 52.7973 70.4788C52.8586 70.2173 52.9977 69.9884 53.2147 69.7919C53.43 69.5958 53.7277 69.4447 54.1076 69.3387L55.4316 68.969L55.6094 69.6059L54.3524 69.9568C54.113 70.0237 53.9278 70.1124 53.797 70.2229C53.6645 70.3339 53.5814 70.4646 53.5477 70.6151C53.514 70.7656 53.5228 70.9326 53.5741 71.1162C53.6258 71.3013 53.7065 71.4517 53.8162 71.5673C53.9243 71.6834 54.0642 71.7562 54.2359 71.7857C54.4064 71.8172 54.6138 71.7989 54.858 71.7307L55.7869 71.4713L54.5951 67.2024L55.3349 66.9959ZM53.532 69.8839L51.7029 68.0099L52.5456 67.7746L54.3508 69.6553L53.532 69.8839ZM45.865 68.1988L47.499 68.4139L46.8346 73.4612L45.1488 73.2393C44.6543 73.1742 44.2429 73.0173 43.9146 72.7685C43.5861 72.5213 43.3521 72.1972 43.2127 71.796C43.0714 71.3963 43.0353 70.9344 43.1043 70.4103C43.1735 69.8845 43.3291 69.4454 43.571 69.0928C43.8114 68.74 44.1257 68.4855 44.514 68.3293C44.902 68.1748 45.3524 68.1313 45.865 68.1988ZM46.6498 68.979L45.8193 68.8697C45.4348 68.8191 45.1057 68.8493 44.832 68.9604C44.5581 69.0731 44.3397 69.2591 44.1769 69.5185C44.0138 69.7795 43.906 70.1097 43.8535 70.5089C43.8013 70.9049 43.8204 71.2492 43.9106 71.5419C43.9991 71.8344 44.158 72.0684 44.3873 72.244C44.6166 72.4196 44.9152 72.5316 45.2833 72.5801L46.1606 72.6956L46.6498 68.979ZM36.6449 67.9903C36.8686 67.4949 37.1516 67.1099 37.4938 66.8353C37.8353 66.5623 38.2072 66.4011 38.6095 66.3518C39.0096 66.3034 39.4098 66.3695 39.81 66.5503C40.2117 66.7317 40.5275 66.9888 40.7572 67.3217C40.9847 67.6553 41.1086 68.0413 41.1289 68.4796C41.1492 68.9179 41.0478 69.384 40.8248 69.8779C40.6011 70.3733 40.3185 70.7575 39.977 71.0306C39.6348 71.3052 39.2636 71.4667 38.8635 71.5151C38.4613 71.5644 38.0592 71.4983 37.6575 71.3169C37.2572 71.1362 36.9434 70.879 36.7158 70.5453C36.4861 70.2124 36.3611 69.8269 36.3408 69.3886C36.3199 68.9518 36.4212 68.4857 36.6449 67.9903ZM37.3382 68.3034C37.1677 68.681 37.0853 69.0265 37.091 69.34C37.0945 69.6544 37.172 69.9257 37.3234 70.1541C37.4726 70.3834 37.6802 70.558 37.946 70.678C38.2133 70.7987 38.4823 70.8393 38.7529 70.7997C39.0229 70.7616 39.2777 70.6403 39.5173 70.4357C39.7548 70.232 39.9588 69.9414 40.1293 69.5638C40.2998 69.1862 40.3833 68.8402 40.3798 68.5259C40.3741 68.2124 40.2966 67.941 40.1474 67.7118C39.9974 67.4841 39.7888 67.3099 39.5215 67.1891C39.2557 67.0691 38.9878 67.0281 38.7178 67.0662C38.4457 67.1052 38.1909 67.2265 37.9534 67.4302C37.7138 67.6347 37.5087 67.9258 37.3382 68.3034ZM29.7196 65.9141L33.08 62.0897L33.6103 62.5557L33.0897 67.0685L33.1252 67.0997L35.5897 64.2949L36.1667 64.802L32.8063 68.6263L32.2723 68.157L32.7943 63.6388L32.7588 63.6076L30.291 66.4161L29.7196 65.9141ZM31.5044 60.3535L31.9509 61.0358L26.6879 62.2906L26.2019 61.548L29.4585 57.2273L29.905 57.9096L27.2071 61.3952L27.2289 61.4285L31.5044 60.3535ZM29.7614 61.3308L28.3131 59.1177L28.8539 58.7638L30.3022 60.9769L29.7614 61.3308ZM24.944 58.0176L24.3175 58.2291L23.0572 54.4961L23.6837 54.2846L24.1918 55.7895L28.3887 54.3726L28.6336 55.098L24.4367 56.5149L24.944 58.0176ZM22.3008 51.1129L27.3518 50.476L27.4479 51.2381L22.3969 51.875L22.3008 51.1129ZM25.0898 43.9009C25.6312 43.9497 26.0877 44.0908 26.4593 44.324C26.8293 44.5571 27.1035 44.8555 27.282 45.2194C27.459 45.5815 27.5277 45.9812 27.4882 46.4186C27.4486 46.8576 27.3092 47.2402 27.0701 47.5664C26.8295 47.8908 26.5056 48.1344 26.0982 48.2973C25.6908 48.4602 25.2172 48.5173 24.6775 48.4686C24.1361 48.4197 23.6805 48.2788 23.3105 48.0457C22.9389 47.8125 22.6645 47.5148 22.4876 47.1527C22.3091 46.7889 22.2397 46.3874 22.2793 45.9484C22.3188 45.511 22.4588 45.1301 22.6994 44.8058C22.9385 44.4796 23.2618 44.235 23.6692 44.0721C24.0749 43.9091 24.5484 43.852 25.0898 43.9009ZM25.0214 44.6584C24.6088 44.6212 24.2553 44.6567 23.961 44.7649C23.6652 44.8713 23.4343 45.0335 23.2682 45.2514C23.1006 45.4676 23.0037 45.7209 22.9775 46.0114C22.9511 46.3036 23.001 46.571 23.1272 46.8136C23.2517 47.0562 23.4499 47.2571 23.7217 47.4164C23.992 47.5739 24.3335 47.6713 24.7461 47.7085C25.1587 47.7458 25.5129 47.7112 25.8087 47.6048C26.103 47.4966 26.334 47.3344 26.5016 47.1182C26.6676 46.9019 26.7637 46.6477 26.7901 46.3556C26.8163 46.0651 26.7671 45.7986 26.6426 45.556C26.5166 45.3117 26.3184 45.1108 26.0481 44.9533C25.7763 44.794 25.434 44.6957 25.0214 44.6584ZM24.7774 36.6802L29.493 38.5986L29.227 39.2525L24.7935 40.2426L24.7757 40.2863L28.2341 41.6932L27.9447 42.4047L23.229 40.4864L23.4969 39.8278L27.936 38.8374L27.9538 38.7936L24.4908 37.3848L24.7774 36.6802ZM28.5921 30.7311L32.4016 34.1082L31.8921 34.683L28.0825 31.3059L28.5921 30.7311ZM33.7159 28.0572C33.5525 27.8858 33.3552 27.8067 33.1239 27.8199C32.8916 27.8318 32.6593 27.9259 32.427 28.1022C32.2606 28.2285 32.1368 28.3641 32.0554 28.509C31.973 28.6527 31.9327 28.7956 31.9345 28.9378C31.9366 29.0776 31.9812 29.205 32.0684 29.3198C32.1415 29.4162 32.2271 29.4823 32.3251 29.5182C32.4244 29.5532 32.529 29.5663 32.639 29.5577C32.7493 29.5469 32.8594 29.5247 32.9692 29.4913C33.0781 29.4565 33.1796 29.419 33.2739 29.3787L33.748 29.1811C33.9015 29.1146 34.0667 29.0569 34.2437 29.0078C34.4208 28.9588 34.601 28.9344 34.7843 28.9347C34.9675 28.935 35.1444 28.9734 35.3149 29.05C35.4867 29.1256 35.6417 29.2545 35.7799 29.4367C35.9542 29.6664 36.0496 29.9155 36.066 30.1838C36.0837 30.4512 36.0195 30.7215 35.8732 30.9948C35.7282 31.2671 35.4973 31.5234 35.1805 31.7638C34.8768 31.9942 34.5775 32.1454 34.2826 32.2173C33.9877 32.2892 33.7104 32.2843 33.4508 32.2026C33.1901 32.1195 32.9606 31.9609 32.762 31.7267L33.3759 31.2609C33.499 31.3984 33.6392 31.4845 33.7965 31.519C33.9541 31.5513 34.1163 31.5416 34.283 31.49C34.4501 31.436 34.6122 31.3494 34.7693 31.2302C34.9422 31.099 35.0755 30.9552 35.1691 30.7989C35.263 30.6403 35.3118 30.4826 35.3156 30.3258C35.3183 30.1677 35.2696 30.0226 35.1694 29.8906C35.0783 29.7704 34.9693 29.6981 34.8426 29.6737C34.7172 29.6482 34.5773 29.6544 34.4231 29.6924C34.2702 29.7294 34.1066 29.7838 33.9323 29.8558L33.3539 30.0887C32.962 30.2467 32.6059 30.312 32.2856 30.2846C31.9666 30.2562 31.6999 30.1008 31.4855 29.8183C31.3082 29.5846 31.2168 29.3326 31.2113 29.0621C31.2058 28.7917 31.2748 28.5262 31.4182 28.2655C31.5605 28.0035 31.7677 27.7694 32.0396 27.563C32.3142 27.3546 32.5931 27.219 32.8761 27.1561C33.1604 27.0922 33.4275 27.0986 33.6771 27.1755C33.9258 27.251 34.1354 27.3956 34.306 27.6094L33.7159 28.0572ZM42.2459 24.189C42.1593 23.9686 42.0064 23.8209 41.7872 23.7459C41.5676 23.6694 41.3169 23.6689 41.0352 23.7446C40.8336 23.7987 40.6677 23.8776 40.5377 23.9812C40.4072 24.0831 40.316 24.2003 40.264 24.3327C40.2132 24.463 40.2065 24.5978 40.2439 24.737C40.2753 24.8539 40.3296 24.9474 40.4068 25.0176C40.4856 25.0874 40.5775 25.139 40.6826 25.1726C40.7889 25.2041 40.8992 25.2251 41.0136 25.2355C41.1275 25.2444 41.2357 25.2479 41.3382 25.2462L41.8518 25.242C42.019 25.2383 42.1938 25.2471 42.3763 25.2685C42.5588 25.2898 42.7348 25.3352 42.9045 25.4046C43.0741 25.474 43.2234 25.5763 43.3524 25.7115C43.483 25.8463 43.578 26.0242 43.6373 26.245C43.7121 26.5235 43.7065 26.7901 43.6205 27.0449C43.5361 27.2992 43.3746 27.5253 43.136 27.7232C42.8991 27.9207 42.5886 28.0711 42.2044 28.1742C41.8363 28.2731 41.5022 28.3002 41.2019 28.2556C40.9016 28.211 40.6467 28.1019 40.437 27.9283C40.227 27.753 40.0741 27.5195 39.9786 27.2278L40.7228 27.0279C40.785 27.2016 40.8823 27.3342 41.015 27.4256C41.1488 27.5149 41.3027 27.5671 41.4766 27.5821C41.6517 27.5952 41.8344 27.5761 42.0249 27.5249C42.2346 27.4686 42.4122 27.3857 42.5578 27.2763C42.7046 27.1648 42.8093 27.0371 42.8719 26.8933C42.9341 26.7479 42.9437 26.5952 42.9007 26.4351C42.8616 26.2895 42.788 26.1814 42.6798 26.111C42.5733 26.0401 42.4414 25.9931 42.2842 25.9701C42.1286 25.9467 41.9566 25.9354 41.7681 25.9363L41.1445 25.9339C40.722 25.9324 40.3676 25.8586 40.0812 25.7125C39.7965 25.5659 39.6081 25.3213 39.5161 24.9788C39.44 24.6956 39.4504 24.4277 39.5473 24.1751C39.6442 23.9226 39.8082 23.7027 40.0393 23.5153C40.27 23.3264 40.5502 23.1876 40.8799 23.0991C41.2128 23.0097 41.5221 22.9892 41.808 23.0377C42.0954 23.0857 42.3403 23.1924 42.5426 23.3577C42.7444 23.5214 42.884 23.7345 42.9613 23.9968L42.2459 24.189ZM45.7036 27.2956L45.6906 22.2048L48.8823 22.1966L48.884 22.8578L46.4604 22.864L46.4643 24.4151L48.7214 24.4094L48.7231 25.0681L46.466 25.0739L46.47 26.6325L48.9235 26.6262L48.9251 27.2874L45.7036 27.2956ZM55.6977 25.1953L54.9482 24.9959C54.9619 24.8281 54.9458 24.6729 54.8997 24.5303C54.8536 24.3877 54.785 24.2589 54.6939 24.1437C54.6028 24.0286 54.4925 23.9307 54.3631 23.8499C54.2352 23.7696 54.0929 23.7086 53.9359 23.6668C53.6525 23.5914 53.3797 23.5951 53.1175 23.678C52.857 23.7613 52.6252 23.9234 52.4222 24.1644C52.2208 24.4057 52.0673 24.725 51.9616 25.1222C51.8551 25.5225 51.8292 25.8775 51.8841 26.187C51.9405 26.497 52.0621 26.7523 52.2488 26.9529C52.4355 27.1535 52.669 27.291 52.9492 27.3656C53.1046 27.4069 53.2574 27.4253 53.4078 27.4207C53.5603 27.415 53.7044 27.3856 53.8403 27.3326C53.9761 27.2796 54.0993 27.2034 54.2097 27.1042C54.3222 27.0038 54.4145 26.8792 54.4867 26.7303L55.2355 26.9321C55.1312 27.1633 54.9943 27.3653 54.8248 27.538C54.6574 27.7095 54.4645 27.8451 54.2459 27.9447C54.0294 28.0431 53.7959 28.1019 53.5456 28.1211C53.2953 28.1402 53.0348 28.1138 52.7642 28.0417C52.3382 27.9284 51.9855 27.7265 51.706 27.4361C51.4271 27.1441 51.2418 26.7835 51.1501 26.3545C51.0601 25.9258 51.0848 25.4496 51.2241 24.9259C51.3639 24.4007 51.5799 23.9754 51.8722 23.6502C52.165 23.3234 52.5047 23.1034 52.8915 22.9902C53.2788 22.8755 53.6846 22.8746 54.109 22.9875C54.37 23.0569 54.6034 23.1593 54.8092 23.2947C55.017 23.4289 55.1922 23.5921 55.3348 23.7844C55.4779 23.9751 55.5812 24.1895 55.6447 24.4276C55.7087 24.6641 55.7263 24.92 55.6977 25.1953ZM61.8767 26.4767L62.5339 26.8791L60.7856 29.7348C60.5996 30.0387 60.3634 30.2642 60.077 30.4114C59.7915 30.5572 59.4783 30.6181 59.1375 30.594C58.7975 30.5686 58.4537 30.4494 58.106 30.2365C57.7597 30.0245 57.4979 29.773 57.3206 29.4818C57.1441 29.1891 57.0559 28.8825 57.0559 28.5619C57.0568 28.2399 57.1503 27.927 57.3363 27.6231L59.0846 24.7674L59.7397 25.1684L58.0239 27.9712C57.9036 28.1676 57.8398 28.3686 57.8326 28.574C57.8268 28.7803 57.8769 28.9761 57.983 29.1615C58.0899 29.3455 58.2529 29.5046 58.472 29.6387C58.6925 29.7737 58.909 29.8469 59.1214 29.8585C59.3362 29.8695 59.5327 29.8246 59.711 29.7239C59.8906 29.624 60.0406 29.4759 60.1609 29.2794L61.8767 26.4767ZM61.4263 32.3468L65.1557 28.8814L66.391 30.2108C66.6594 30.4997 66.8324 30.7857 66.91 31.0688C66.9887 31.3531 66.984 31.6244 66.896 31.8827C66.8091 32.1398 66.651 32.375 66.4215 32.5882C66.1933 32.8003 65.9478 32.939 65.6851 33.0044C65.4247 33.0699 65.1575 33.0513 64.8833 32.9486C64.6103 32.8471 64.3396 32.6519 64.0711 32.363L63.1354 31.3559L63.6198 30.9058L64.5081 31.8619C64.6773 32.044 64.8411 32.1678 64.9993 32.2334C65.1587 32.3003 65.3129 32.3141 65.4621 32.2751C65.6113 32.236 65.7557 32.1516 65.8953 32.0218C66.0361 31.891 66.1328 31.7503 66.1852 31.5998C66.2387 31.4505 66.2393 31.2928 66.1867 31.1267C66.1365 30.9607 66.0251 30.7848 65.8525 30.5991L65.196 29.8925L61.9492 32.9095L61.4263 32.3468ZM64.8196 32.6244L63.9932 35.1093L63.3976 34.4683L64.2409 32.0016L64.8196 32.6244ZM64.9407 36.3379L69.4287 33.9347L70.9354 36.7485L70.3524 37.0606L69.2084 34.924L67.8409 35.6562L68.9064 37.646L68.3257 37.957L67.2602 35.9672L65.8862 36.7029L67.0443 38.8658L66.4614 39.1779L64.9407 36.3379ZM67.5821 42.4353L67.1905 40.8345L72.1355 39.6246L72.5396 41.2761C72.6581 41.7607 72.6609 42.201 72.548 42.5971C72.4367 42.9929 72.2194 43.3284 71.8961 43.6037C71.5747 43.8802 71.1573 44.0813 70.6438 44.207C70.1287 44.333 69.663 44.3471 69.2467 44.2494C68.8308 44.1532 68.4797 43.9525 68.1934 43.6472C67.9088 43.3415 67.705 42.9375 67.5821 42.4353ZM68.0249 41.4211L68.224 42.2348C68.3162 42.6114 68.4636 42.9072 68.6663 43.122C68.8706 43.3365 69.1232 43.4726 69.4239 43.5304C69.7263 43.5878 70.0731 43.5686 70.4642 43.4729C70.8522 43.378 71.1662 43.2355 71.4063 43.0454C71.6468 42.8569 71.8073 42.624 71.8879 42.3466C71.9685 42.0693 71.9646 41.7503 71.8764 41.3898L71.6661 40.5302L68.0249 41.4211ZM68.3836 46.6723C68.3761 46.5366 68.4177 46.4173 68.5083 46.3144C68.6006 46.2114 68.7154 46.1561 68.8527 46.1486C68.9884 46.1411 69.1069 46.1836 69.2082 46.2759C69.3112 46.3682 69.3665 46.4822 69.3739 46.6179C69.3814 46.7535 69.339 46.8729 69.2467 46.9759C69.1561 47.0788 69.043 47.134 68.9073 47.1414C68.8163 47.1464 68.7314 47.1278 68.6528 47.0857C68.5759 47.0451 68.513 46.9888 68.4642 46.9168C68.4155 46.8448 68.3886 46.7633 68.3836 46.6723Z" fill="white"/>
<defs>
<clipPath id="clip0_48_8485">
<rect width="20.0669" height="20.0669" fill="white" transform="translate(34.105 44.1382) rotate(-30)"/>
</clipPath>
</defs>
</svg>
